<?xml version="1.0" encoding="utf-8"?>
<svg version="1.1" id="XJ_music" xmlns="http://www.w3.org/2000/svg" xmlns:xlink="http://www.w3.org/1999/xlink" x="0px" y="0px"
	 viewBox="0 0 432 432" style="enable-background:new 0 0 432 432;" xml:space="preserve">
<style type="text/css">
	.st0{fill:#999999;}
</style>
<g>
	<path id="X" class="st0" d="M251.98,1.87c-8.16,0-16.33-0.18-24.48,0.11c-2.42,0.09-4.95,1.19-7.14,2.34
		c-5.88,3.07-9.07,8.58-12.67,13.69c-5.44,7.7-10.92,15.37-16.34,23.08c-3.79,5.4-7.47,10.88-11.27,16.27
		c-3.13,4.44-6.13,8.99-9.63,13.15c-2.76,3.28-7.09,3.77-9.92-1.17c-2.55-4.45-4.97-8.96-7.42-13.47
		c-2.57-4.74-5.08-9.51-7.66-14.25c-2.06-3.77-4.22-7.5-6.27-11.27c-2.05-3.77-3.94-7.63-6.03-11.38c-2.67-4.77-5.12-9.72-9.53-13.3
		c-1.29-1.05-3-1.66-4.57-2.35c-5.25-2.3-10.86-1.45-16.34-1.54c-9.07-0.14-18.15-0.04-27.23-0.04c-12.32,0-24.65,0.06-36.97-0.01
		c-5.22-0.03-9.15,2.18-12.22,6.01c-3.69,4.6-4.44,9.89-3.86,15.54c0.5,4.85,2.72,8.97,5.24,13.03C32,43.26,36.31,50.2,40.65,57.14
		c3.4,5.44,6.86,10.85,10.25,16.29c4.36,6.98,8.67,14,13.03,20.98c3.37,5.39,6.83,10.73,10.2,16.12c4.39,7.03,8.72,14.1,13.1,21.14
		c1.57,2.53,3.23,5.02,4.78,7.57c2.13,3.5,2.24,7.38,2.22,11.31c-0.02,5.52-2.64,9.93-5.96,14.16c-3.64,4.63-7.12,9.38-10.67,14.08
		c-5.7,7.53-11.42,15.04-17.1,22.59c-8.96,11.9-17.86,23.83-26.83,35.72c-6.09,8.07-12.26,16.08-18.38,24.13
		c-3.26,4.29-6.63,8.52-9.66,12.96c-1.7,2.49-3.09,5.22-3.43,8.32c-0.14,1.27-0.83,2.48-1.12,3.75c-0.16,0.7-0.13,1.5,0.03,2.2
		c0.29,1.21,0.92,2.36,1.1,3.58c0.5,3.37,2.09,6.22,4.82,8.22c1.62,1.19,3.45,2.31,5.85,2.29c14.5-0.11,29-0.23,43.49,0
		c3.65,0.06,6.93-0.88,10.02-2.16c3.3-1.37,6.01-3.84,8.13-6.78c4.98-6.94,10.02-13.84,15.02-20.77c6.2-8.59,12.4-17.18,18.55-25.81
		c6.15-8.63,12.23-17.31,18.35-25.96c2.28-3.22,4.61-6.39,6.88-9.62c1.49-2.12,3.66-3.22,6.07-3.99c2.04-0.65,6.19,0.71,7.68,3.44
		c2.35,4.31,4.66,8.63,7.03,12.93c2.08,3.76,4.25,7.47,6.32,11.23c2.1,3.81,4.09,7.68,6.18,11.5c1.48,2.71,3.06,5.37,4.56,8.07
		c2.1,3.81,4.14,7.65,6.25,11.45c2.06,3.71,4.23,7.36,6.29,11.07c2.08,3.76,3.98,7.61,6.15,11.32c2.08,3.55,3.73,7.47,7.28,10
		c1.51,1.07,3.36,1.69,5.02,2.58c3.99,2.12,8.35,1.39,12.56,1.43c11.24,0.11,22.49,0.04,33.74,0.04c10.9,0,21.8-0.08,32.69,0.03
		c6.07,0.06,10.34-2.72,13.56-7.33c1.56-2.23,2.22-4.8,2.93-7.42c1.06-3.92,0.41-7.72-0.52-11.35c-0.85-3.32-2.77-6.43-4.5-9.48
		c-2.86-5.04-5.92-9.96-8.94-14.92c-1.98-3.25-4.05-6.46-6.05-9.71c-2.95-4.8-5.86-9.62-8.81-14.42c-3.04-4.94-6.12-9.86-9.15-14.81
		c-2.91-4.76-5.75-9.56-8.67-14.31c-3-4.9-6.07-9.77-9.08-14.66c-2.89-4.71-5.74-9.44-8.62-14.16c-2.07-3.4-4.15-6.79-6.24-10.17
		c-3.76-6.12-7.63-12.17-11.26-18.37c-2-3.42-3.87-6.97-4.4-10.94c-0.56-4.17,0.79-7.79,3.48-11.14c3.48-4.33,6.67-8.88,9.99-13.33
		c7.64-10.24,15.3-20.46,22.92-30.72c5.6-7.53,11.13-15.11,16.71-22.66c6.7-9.07,13.65-17.97,20.02-27.25
		c2.59-3.78,3.99-8.24,2.44-13.14c-0.99-3.14-2.08-6.07-4.89-8.01c-1.7-1.18-3.49-2.4-5.79-2.4c-8.11,0.01-16.21,0-24.32,0
		C251.98,1.85,251.98,1.86,251.98,1.87z M252.91,14.56c5.54,0,11.07-0.01,16.61,0.01c0.68,0,1.38,0.06,2.02,0.25
		c1.19,0.36,1.69,1.02,0.86,2.22c-1.89,2.73-3.63,5.56-5.59,8.24c-5.23,7.11-10.57,14.16-15.84,21.25
		c-5.3,7.13-10.55,14.3-15.85,21.44c-5.17,6.96-10.38,13.88-15.55,20.83c-5.88,7.89-11.64,15.85-17.65,23.64
		c-2.04,2.64-3.84,5.45-3.82,8.61c0.04,7.58-1.7,15.39,2.4,22.61c1.19,2.1,2.08,4.37,3.33,6.43c3.02,5.01,6.2,9.94,9.26,14.93
		c2.85,4.66,5.6,9.38,8.46,14.04c3.09,5.04,6.26,10.03,9.36,15.07c2.98,4.84,5.92,9.71,8.89,14.56c2.02,3.3,4.06,6.58,6.07,9.88
		c2.87,4.72,5.7,9.46,8.59,14.17c3.03,4.94,6.13,9.85,9.16,14.8c2.88,4.71,5.71,9.45,8.57,14.18c3.35,5.52,6.79,11,10.01,16.59
		c0.91,1.58,1.68,3.51,1.65,5.26c-0.07,3.65-3.18,6.14-7,6.15c-12.59,0.01-25.18,0-37.77,0c-5.94,0-11.87,0.02-17.81-0.01
		c-2.91-0.02-5.86,0.14-8.71-0.3c-2.91-0.45-5.96-0.84-7.56-4.07c-2.18-4.38-4.81-8.55-7.18-12.84c-2.07-3.75-4.02-7.57-6.08-11.33
		c-2.15-3.91-4.38-7.78-6.55-11.68c-2.04-3.66-4.03-7.34-6.07-11c-1.53-2.75-3.11-5.46-4.63-8.21c-2.16-3.9-4.28-7.81-6.42-11.72
		c-1.55-2.85-2.99-5.77-4.68-8.55c-1.88-3.09-3.11-6.59-6.13-8.99c-1.32-1.04-2.52-2.25-3.63-3.49c-1.8-2-4.14-2.64-6.72-2.68
		c-4.17-0.06-8.34-0.14-12.5,0.04c-1.71,0.07-3.81,0.34-5,1.33c-3.35,2.79-6.77,5.69-9.37,9.1c-6.03,7.9-11.57,16.14-17.35,24.22
		c-3.74,5.24-7.59,10.41-11.32,15.66c-3.47,4.88-6.83,9.84-10.29,14.72c-5.29,7.47-10.73,14.84-15.9,22.38
		c-2.82,4.11-6.44,6.99-11.55,7.12c-11.69,0.29-23.4,0.23-35.1,0.28c-1.85,0.01-3.14-1.74-2.51-3.4c0.51-1.33,1.04-2.7,1.86-3.86
		c3.05-4.36,6.17-8.67,9.37-12.93c5.77-7.69,11.63-15.31,17.43-22.99c5.59-7.41,11.11-14.86,16.71-22.26
		c6.14-8.11,12.36-16.16,18.49-24.28c5.39-7.14,10.71-14.33,16.04-21.52c3.17-4.28,6.41-8.51,9.36-12.92
		c1.1-1.64,1.93-3.73,2.04-5.65c0.33-5.86,0.26-11.74,0.34-17.62c0.04-3.29-0.56-6.47-2.27-9.32c-2.95-4.93-6.09-9.75-9.11-14.64
		c-3.26-5.26-6.44-10.55-9.72-15.8c-3.05-4.87-6.2-9.69-9.25-14.56c-3.34-5.34-6.6-10.73-9.94-16.07c-2.99-4.78-6.07-9.5-9.06-14.27
		c-3.43-5.48-6.8-11.01-10.21-16.5c-3.32-5.35-6.74-10.66-9.95-16.07c-0.87-1.47-1.65-3.27-1.63-4.9c0.05-3.19,3.01-5.53,6.4-5.54
		c8.79-0.03,17.58-0.03,26.37-0.04c4.59,0,9.19-0.03,13.78,0.01c8.39,0.07,16.78,0.03,25.16,0.37c2.49,0.1,5.41,0.61,7.02,2.78
		c1.83,2.48,3.22,5.27,4.72,7.96c2.11,3.8,4.13,7.65,6.2,11.47c2.04,3.78,4.11,7.55,6.15,11.33c1.98,3.68,3.92,7.38,5.91,11.05
		c2.15,3.97,4.32,7.93,6.51,11.88c1.07,1.93,1.94,4.03,3.36,5.69c2.06,2.4,4.46,4.57,6.88,6.65c1.58,1.36,3.48,2.12,5.79,2.01
		c3.53-0.16,7.08-0.09,10.62-0.03c2.39,0.04,4.37-0.98,5.98-2.41c4.32-3.83,8.23-7.98,11.37-12.85c3.6-5.58,7.66-10.88,11.49-16.33
		c4.87-6.94,9.71-13.91,14.55-20.87c2.59-3.73,5.34-7.39,7.7-11.25c3.28-5.35,8.21-7.43,14.37-7.46
		C242.18,14.55,247.55,14.56,252.91,14.56z"/>
	<path id="J" class="st0" d="M431,141.31c0-41.47,0-82.93,0-124.4c0-7.11-4.41-12.37-11.35-13.58c-0.72-0.12-1.46-0.16-2.19-0.16
		c-15.91-0.02-31.83-0.06-47.74-0.03c-6.59,0.01-11.75,3.84-13.33,9.77c-0.33,1.25-0.48,2.58-0.49,3.87
		c-0.03,42.23-0.05,84.46-0.03,126.69c0,14.52,0.1,29.04,0.14,43.56c0.04,18.66,0.08,37.33,0.09,55.99
		c0,7.44-4.64,13.31-11.83,14.68c-2.57,0.49-5.27,0.33-7.91,0.45c-2.08,0.09-4.21-0.1-6.24,0.24c-6.09,1.04-10.63,5.56-10.97,11.63
		c-0.38,7-0.43,14.05,0,21.04c0.44,7.2,6.27,11.91,13.93,11.93c15.96,0.04,31.93,0.08,47.89,0.04c5.41-0.01,10.86,0.13,16.22-0.47
		c16.22-1.82,30.4-15.1,33.09-30.7c0.47-2.72,0.69-5.51,0.69-8.27c0.04-40.76,0.03-81.52,0.03-122.28
		C431.01,141.31,431.01,141.31,431,141.31z M369.64,171.68c0-1.52,0.01-3.05,0-4.57c-0.1-23.77-0.21-47.53-0.28-71.3
		c-0.08-24.43-0.13-48.87-0.19-73.3c-0.01-4.31,2.15-6.37,6.68-6.38c11.74-0.01,23.47-0.01,35.21,0c4.51,0,6.68,2.08,6.66,6.39
		c-0.11,27.91-0.24,55.81-0.35,83.72c-0.05,11.59-0.11,23.18-0.12,34.76c-0.01,7.23,0.11,14.47,0.11,21.7
		c0.01,33.74,0.01,67.48-0.01,101.21c0,1.68-0.09,3.39-0.41,5.03c-2.42,12.52-12.94,20.89-26.18,20.9
		c-13.88,0.02-27.76,0.03-41.64,0.04c-3.78,0-7.56,0.11-11.33,0.02c-3.43-0.09-5.66-2.7-5.47-5.97c0.12-2.12,0.15-4.24,0.05-6.36
		c-0.19-4.07,1.95-6.35,6.15-6.46c2.31-0.06,4.65-0.02,6.91-0.38c14.42-2.31,24.19-13.46,24.21-27.58
		C369.67,219.35,369.64,195.51,369.64,171.68z"/>
	<path id="M" class="st0" d="M2.44,347.22c0,27.53,0,54.78,0,82.17c6.17,0,12.3,0,18.62,0c-0.51-22.87-1.03-45.68-1.54-68.49
		c0.12-0.05,0.24-0.1,0.36-0.15c0.25,0.5,0.53,1,0.76,1.51c9.78,21.89,19.57,43.77,29.32,65.67c0.51,1.16,1.08,1.65,2.42,1.63
		c4.49-0.09,8.97-0.09,13.46,0c1.27,0.03,1.81-0.44,2.29-1.53c9.68-22.06,19.4-44.1,29.12-66.14c0.25-0.57,0.54-1.12,0.82-1.67
		c0.18,0.03,0.36,0.05,0.54,0.08c-0.51,22.98-1.02,45.96-1.53,69.09c6.24,0,12.36,0,18.59,0c0-27.3,0-54.59,0-82.16
		c-0.52,0-1.07,0-1.62,0c-9.09,0-18.18,0.03-27.27-0.03c-1.24-0.01-1.8,0.39-2.27,1.52c-8.09,19.2-16.23,38.38-24.36,57.57
		c-0.29,0.67-0.62,1.33-1.11,2.39c-0.43-0.88-0.72-1.4-0.96-1.94c-8.29-19.18-16.59-38.35-24.83-57.56c-0.64-1.5-1.41-2-3.05-1.99
		c-8.62,0.09-17.25,0.04-25.87,0.04C3.7,347.22,3.09,347.22,2.44,347.22z"/>
	<path id="S" class="st0" d="M244.64,403.41c-6.32,0-12.41,0-18.68,0c-0.2,6.04-0.13,11.99,3.29,17.29
		c3.12,4.84,7.94,7.19,13.36,8.03c5.39,0.84,10.87,1.3,16.32,1.41c8.96,0.18,17.95,0.43,26.86-0.98c1.78-0.28,3.55-0.67,5.27-1.18
		c7.14-2.11,11.46-6.85,12.84-14.15c1.21-6.41,1.25-12.82-0.28-19.19c-1.17-4.83-4.22-8.04-8.85-9.79
		c-4.74-1.79-9.71-2.38-14.7-2.76c-8.48-0.64-16.97-1.14-25.44-1.79c-1.72-0.13-3.45-0.58-5.1-1.09c-2.24-0.69-3.74-2.31-3.97-4.63
		c-0.26-2.64-0.32-5.33-0.16-7.97c0.19-3.15,2.1-5.19,5.15-5.8c3.01-0.6,6.09-1.1,9.15-1.13c5.93-0.07,11.88-0.06,17.78,0.44
		c4.55,0.39,6.28,2.78,6.45,7.38c0.04,1.21,0.01,2.42,0.01,3.72c6.27,0,12.36,0,18.45,0c2.32-8.45-2.67-18.64-10.74-21.92
		c-4.49-1.82-9.23-2.4-14.01-2.56c-10.66-0.36-21.32-0.68-31.92,0.83c-2.12,0.3-4.24,0.81-6.27,1.48
		c-7.21,2.37-11.38,7.36-12.52,14.85c-0.73,4.81-0.67,9.62,0.42,14.37c1.46,6.39,5.23,10.99,11.56,12.79
		c4.49,1.28,9.2,2.05,13.87,2.44c7.42,0.63,14.89,0.74,22.34,1.13c1.5,0.08,3.01,0.32,4.49,0.61c3.62,0.72,5.86,2.93,6.14,6.61
		c0.22,2.75,0.18,5.57-0.16,8.31c-0.37,2.98-2.36,4.97-5.25,5.65c-2.7,0.64-5.5,1.18-8.26,1.2c-6.4,0.05-12.81,0-19.19-0.47
		c-5.93-0.44-7.99-2.96-8.23-8.92C244.59,406.26,244.64,404.88,244.64,403.41z"/>
	<path id="U" class="st0" d="M213.49,347.27c-6.33,0-12.38,0-18.71,0c0,0.68,0,1.35,0,2.01c0,18.36,0,36.72,0,55.08
		c0,0.7,0,1.39-0.01,2.09c-0.12,5.14-2.23,7.87-7.23,9.05c-2.03,0.48-4.13,0.8-6.21,0.9c-7.5,0.37-15.03,0.76-22.45-0.81
		c-5.44-1.15-7.37-3.49-7.56-9.04c-0.13-3.71-0.06-7.44-0.06-11.15c0-15.28,0-30.56,0-45.84c0-0.74,0-1.48,0-2.27
		c-6.31,0-12.41,0-18.63,0c-0.03,0.63-0.08,1.19-0.08,1.75c0,18.77-0.04,37.53,0.03,56.3c0.01,2.71,0.25,5.47,0.82,8.12
		c1.51,7.08,5.99,11.61,12.78,13.96c5.4,1.87,11.01,2.41,16.67,2.59c9.9,0.33,19.8,0.55,29.65-0.86c2.29-0.33,4.59-0.83,6.79-1.54
		c8.71-2.8,13.45-9.01,14.01-18.17c0.11-1.85,0.18-3.72,0.18-5.57c0.01-18.07,0.01-36.14,0.01-54.21
		C213.49,348.92,213.49,348.17,213.49,347.27z"/>
	<path id="C" class="st0" d="M431.01,400.08c-6.48,0-12.57,0-18.92,0c0,1.32,0,2.58,0,3.84c-0.03,8.64-2.64,11.63-11.32,12.39
		c-7.26,0.63-14.55,0.78-21.79-0.34c-6.84-1.07-10.07-4.15-10.3-11.08c-0.37-11.14-0.37-22.3-0.01-33.44
		c0.21-6.7,3.42-9.76,10.62-10.73c8.22-1.1,16.51-1.1,24.73,0.1c4.74,0.69,6.66,2.97,6.91,7.73c0.11,2.02,0.02,4.04,0.02,6.15
		c6.37,0,12.46,0,18.79,0c0.07-7.28-0.24-14.44-4.95-20.51c-3.23-4.16-7.92-5.81-12.9-6.58c-9.84-1.52-19.76-1.34-29.64-0.8
		c-4.97,0.27-9.98,1.01-14.8,2.19c-9.96,2.45-15.44,9.23-17.03,19.18c-0.52,3.26-0.84,6.58-0.83,9.88
		c0.03,9.47,0.18,18.93,0.51,28.39c0.09,2.63,0.79,5.28,1.53,7.83c2.3,7.93,7.95,12.46,15.78,14.12c4.81,1.02,9.79,1.78,14.69,1.73
		c10-0.1,20-0.8,30-1.33c1.43-0.08,2.86-0.53,4.27-0.88c7.96-1.99,12.8-6.96,13.89-15.11C430.79,408.64,430.77,404.4,431.01,400.08z
		"/>
	<path id="I" class="st0" d="M336.28,347.3c-6.23,0-12.32,0-18.5,0c0,27.42,0,54.75,0,82.15c6.2,0,12.29,0,18.5,0
		C336.28,402.08,336.28,374.75,336.28,347.3z"/>
</g>
</svg>
