<?xml version="1.0" encoding="UTF-8" standalone="no"?>

<svg
        xmlns="http://www.w3.org/2000/svg"
        width="70.518967mm"
        height="70.507355mm"
        viewBox="0 0 249.87036 249.82921"
        id="svg2"
        version="1.1">
    <defs
            id="defs4"/>
    <g
            id="layer1"
            transform="translate(-49.979456,-752.38278)">
        <path
                style="fill:#999999;fill-opacity:1"
                d="m 257.71453,920.99189 -122.83176,0.0456 c -78.342743,0.0291 -78.522453,3.57977 -78.664793,21.18282 -0.0676,8.36298 2.85514,16.98087 36.08256,16.91069 42.457653,-0.0897 41.078953,-22.00075 42.473533,-35.0405 -0.0149,66.65111 -1.28987,77.9252 -41.364533,78.1215 -38.68659,-0.3813 -43.43857,-23.8438 -43.43007,-61.31752 0.0149,-64.26811 23.48426,-74.978 85.019383,-74.97855 40.60516,-3.6e-4 122.47779,0.49003 122.47779,0.49003 34.76832,-0.0868 35.05726,-23.4734 35.14147,-34.50942 0.0656,-8.59633 -2.10171,-30.14106 -35.14026,-30.22688 -41.78811,-0.0824 -53.75492,-0.8847 -71.20216,-0.80676 -44.7609,0.19996 -51.6534,43.90304 -51.47399,62.7838 -0.17941,-111.19743 9.0557,-111.19743 51.73982,-111.25609 43.9159,-0.003 56.11458,-0.0171 70.73622,0.002 42.55708,0.0564 42.50998,48.79652 42.56798,76.6485 0.07,33.71439 -0.2804,91.74236 -42.13119,91.95078 z"
                id="path4158"/>
    </g>
</svg>
